<mxfile host="Electron" agent="Mozilla/5.0 (Windows NT 10.0; Win64; x64) AppleWebKit/537.36 (KHTML, like Gecko) draw.io/24.7.17 Chrome/128.0.6613.36 Electron/32.0.1 Safari/537.36" version="24.7.17">
  <diagram name="Page-1" id="1ywcNtc9fY7pPolxUOmf">
    <mxGraphModel dx="1290" dy="621" grid="1" gridSize="10" guides="1" tooltips="1" connect="1" arrows="1" fold="1" page="1" pageScale="1" pageWidth="850" pageHeight="1100" math="0" shadow="0">
      <root>
        <mxCell id="0" />
        <mxCell id="1" parent="0" />
        <mxCell id="cbG4pCL91-RinCW15dFg-1" value="User" style="shape=umlLifeline;perimeter=lifelinePerimeter;whiteSpace=wrap;container=1;dropTarget=0;collapsible=0;recursiveResize=0;outlineConnect=0;portConstraint=eastwest;newEdgeStyle={&quot;edgeStyle&quot;:&quot;elbowEdgeStyle&quot;,&quot;elbow&quot;:&quot;vertical&quot;,&quot;curved&quot;:0,&quot;rounded&quot;:0};size=65;" vertex="1" parent="1">
          <mxGeometry x="20" y="20" width="150" height="2752" as="geometry" />
        </mxCell>
        <mxCell id="cbG4pCL91-RinCW15dFg-2" value="Dashboard" style="shape=umlLifeline;perimeter=lifelinePerimeter;whiteSpace=wrap;container=1;dropTarget=0;collapsible=0;recursiveResize=0;outlineConnect=0;portConstraint=eastwest;newEdgeStyle={&quot;edgeStyle&quot;:&quot;elbowEdgeStyle&quot;,&quot;elbow&quot;:&quot;vertical&quot;,&quot;curved&quot;:0,&quot;rounded&quot;:0};size=65;" vertex="1" parent="1">
          <mxGeometry x="307" y="20" width="150" height="2752" as="geometry" />
        </mxCell>
        <mxCell id="cbG4pCL91-RinCW15dFg-3" value="Backend API" style="shape=umlLifeline;perimeter=lifelinePerimeter;whiteSpace=wrap;container=1;dropTarget=0;collapsible=0;recursiveResize=0;outlineConnect=0;portConstraint=eastwest;newEdgeStyle={&quot;edgeStyle&quot;:&quot;elbowEdgeStyle&quot;,&quot;elbow&quot;:&quot;vertical&quot;,&quot;curved&quot;:0,&quot;rounded&quot;:0};size=65;" vertex="1" parent="1">
          <mxGeometry x="634" y="20" width="150" height="2752" as="geometry" />
        </mxCell>
        <mxCell id="cbG4pCL91-RinCW15dFg-4" value="Access Inventory Management" style="verticalAlign=bottom;edgeStyle=elbowEdgeStyle;elbow=vertical;curved=0;rounded=0;endArrow=block;" edge="1" parent="1" source="cbG4pCL91-RinCW15dFg-1" target="cbG4pCL91-RinCW15dFg-2">
          <mxGeometry relative="1" as="geometry">
            <Array as="points">
              <mxPoint x="247" y="129" />
            </Array>
          </mxGeometry>
        </mxCell>
        <mxCell id="cbG4pCL91-RinCW15dFg-5" value="Authenticate User" style="verticalAlign=bottom;edgeStyle=elbowEdgeStyle;elbow=vertical;curved=0;rounded=0;endArrow=block;" edge="1" parent="1" source="cbG4pCL91-RinCW15dFg-2" target="cbG4pCL91-RinCW15dFg-3">
          <mxGeometry relative="1" as="geometry">
            <Array as="points">
              <mxPoint x="554" y="183" />
            </Array>
          </mxGeometry>
        </mxCell>
        <mxCell id="cbG4pCL91-RinCW15dFg-6" value="Authentication success" style="verticalAlign=bottom;edgeStyle=elbowEdgeStyle;elbow=vertical;curved=0;rounded=0;dashed=1;dashPattern=2 3;endArrow=block;" edge="1" parent="1" source="cbG4pCL91-RinCW15dFg-3" target="cbG4pCL91-RinCW15dFg-2">
          <mxGeometry relative="1" as="geometry">
            <Array as="points">
              <mxPoint x="557" y="237" />
            </Array>
          </mxGeometry>
        </mxCell>
        <mxCell id="cbG4pCL91-RinCW15dFg-7" value="Display Inventory Dashboard" style="verticalAlign=bottom;edgeStyle=elbowEdgeStyle;elbow=vertical;curved=0;rounded=0;dashed=1;dashPattern=2 3;endArrow=block;" edge="1" parent="1" source="cbG4pCL91-RinCW15dFg-2" target="cbG4pCL91-RinCW15dFg-1">
          <mxGeometry relative="1" as="geometry">
            <Array as="points">
              <mxPoint x="250" y="291" />
            </Array>
          </mxGeometry>
        </mxCell>
        <mxCell id="cbG4pCL91-RinCW15dFg-8" value="View Jewellery Stock" style="verticalAlign=bottom;edgeStyle=elbowEdgeStyle;elbow=vertical;curved=0;rounded=0;endArrow=block;" edge="1" parent="1" source="cbG4pCL91-RinCW15dFg-1" target="cbG4pCL91-RinCW15dFg-2">
          <mxGeometry relative="1" as="geometry">
            <Array as="points">
              <mxPoint x="247" y="345" />
            </Array>
          </mxGeometry>
        </mxCell>
        <mxCell id="cbG4pCL91-RinCW15dFg-9" value="GET /inventory/jewellery" style="verticalAlign=bottom;edgeStyle=elbowEdgeStyle;elbow=vertical;curved=0;rounded=0;endArrow=block;" edge="1" parent="1" source="cbG4pCL91-RinCW15dFg-2" target="cbG4pCL91-RinCW15dFg-3">
          <mxGeometry relative="1" as="geometry">
            <Array as="points">
              <mxPoint x="554" y="399" />
            </Array>
          </mxGeometry>
        </mxCell>
        <mxCell id="cbG4pCL91-RinCW15dFg-10" value="Jewellery stock data" style="verticalAlign=bottom;edgeStyle=elbowEdgeStyle;elbow=vertical;curved=0;rounded=0;dashed=1;dashPattern=2 3;endArrow=block;" edge="1" parent="1" source="cbG4pCL91-RinCW15dFg-3" target="cbG4pCL91-RinCW15dFg-2">
          <mxGeometry relative="1" as="geometry">
            <Array as="points">
              <mxPoint x="557" y="453" />
            </Array>
          </mxGeometry>
        </mxCell>
        <mxCell id="cbG4pCL91-RinCW15dFg-11" value="Display jewellery items" style="verticalAlign=bottom;edgeStyle=elbowEdgeStyle;elbow=vertical;curved=0;rounded=0;dashed=1;dashPattern=2 3;endArrow=block;" edge="1" parent="1" source="cbG4pCL91-RinCW15dFg-2" target="cbG4pCL91-RinCW15dFg-1">
          <mxGeometry relative="1" as="geometry">
            <Array as="points">
              <mxPoint x="250" y="507" />
            </Array>
          </mxGeometry>
        </mxCell>
        <mxCell id="cbG4pCL91-RinCW15dFg-12" value="View Gold Stock" style="verticalAlign=bottom;edgeStyle=elbowEdgeStyle;elbow=vertical;curved=0;rounded=0;endArrow=block;" edge="1" parent="1" source="cbG4pCL91-RinCW15dFg-1" target="cbG4pCL91-RinCW15dFg-2">
          <mxGeometry relative="1" as="geometry">
            <Array as="points">
              <mxPoint x="247" y="561" />
            </Array>
          </mxGeometry>
        </mxCell>
        <mxCell id="cbG4pCL91-RinCW15dFg-13" value="GET /inventory/gold" style="verticalAlign=bottom;edgeStyle=elbowEdgeStyle;elbow=vertical;curved=0;rounded=0;endArrow=block;" edge="1" parent="1" source="cbG4pCL91-RinCW15dFg-2" target="cbG4pCL91-RinCW15dFg-3">
          <mxGeometry relative="1" as="geometry">
            <Array as="points">
              <mxPoint x="554" y="615" />
            </Array>
          </mxGeometry>
        </mxCell>
        <mxCell id="cbG4pCL91-RinCW15dFg-14" value="Gold stock data" style="verticalAlign=bottom;edgeStyle=elbowEdgeStyle;elbow=vertical;curved=0;rounded=0;dashed=1;dashPattern=2 3;endArrow=block;" edge="1" parent="1" source="cbG4pCL91-RinCW15dFg-3" target="cbG4pCL91-RinCW15dFg-2">
          <mxGeometry relative="1" as="geometry">
            <Array as="points">
              <mxPoint x="557" y="669" />
            </Array>
          </mxGeometry>
        </mxCell>
        <mxCell id="cbG4pCL91-RinCW15dFg-15" value="Display gold inventory" style="verticalAlign=bottom;edgeStyle=elbowEdgeStyle;elbow=vertical;curved=0;rounded=0;dashed=1;dashPattern=2 3;endArrow=block;" edge="1" parent="1" source="cbG4pCL91-RinCW15dFg-2" target="cbG4pCL91-RinCW15dFg-1">
          <mxGeometry relative="1" as="geometry">
            <Array as="points">
              <mxPoint x="250" y="723" />
            </Array>
          </mxGeometry>
        </mxCell>
        <mxCell id="cbG4pCL91-RinCW15dFg-16" value="Add New Jewellery Item" style="verticalAlign=bottom;edgeStyle=elbowEdgeStyle;elbow=vertical;curved=0;rounded=0;endArrow=block;" edge="1" parent="1" source="cbG4pCL91-RinCW15dFg-1" target="cbG4pCL91-RinCW15dFg-2">
          <mxGeometry relative="1" as="geometry">
            <Array as="points">
              <mxPoint x="247" y="777" />
            </Array>
          </mxGeometry>
        </mxCell>
        <mxCell id="cbG4pCL91-RinCW15dFg-17" value="POST /inventory/jewellery" style="verticalAlign=bottom;edgeStyle=elbowEdgeStyle;elbow=vertical;curved=0;rounded=0;endArrow=block;" edge="1" parent="1" source="cbG4pCL91-RinCW15dFg-2" target="cbG4pCL91-RinCW15dFg-3">
          <mxGeometry relative="1" as="geometry">
            <Array as="points">
              <mxPoint x="554" y="831" />
            </Array>
          </mxGeometry>
        </mxCell>
        <mxCell id="cbG4pCL91-RinCW15dFg-18" value="Item created" style="verticalAlign=bottom;edgeStyle=elbowEdgeStyle;elbow=vertical;curved=0;rounded=0;dashed=1;dashPattern=2 3;endArrow=block;" edge="1" parent="1" source="cbG4pCL91-RinCW15dFg-3" target="cbG4pCL91-RinCW15dFg-2">
          <mxGeometry relative="1" as="geometry">
            <Array as="points">
              <mxPoint x="557" y="885" />
            </Array>
          </mxGeometry>
        </mxCell>
        <mxCell id="cbG4pCL91-RinCW15dFg-19" value="Show success message" style="verticalAlign=bottom;edgeStyle=elbowEdgeStyle;elbow=vertical;curved=0;rounded=0;dashed=1;dashPattern=2 3;endArrow=block;" edge="1" parent="1" source="cbG4pCL91-RinCW15dFg-2" target="cbG4pCL91-RinCW15dFg-1">
          <mxGeometry relative="1" as="geometry">
            <Array as="points">
              <mxPoint x="250" y="939" />
            </Array>
          </mxGeometry>
        </mxCell>
        <mxCell id="cbG4pCL91-RinCW15dFg-20" value="Update Jewellery Item" style="verticalAlign=bottom;edgeStyle=elbowEdgeStyle;elbow=vertical;curved=0;rounded=0;endArrow=block;" edge="1" parent="1" source="cbG4pCL91-RinCW15dFg-1" target="cbG4pCL91-RinCW15dFg-2">
          <mxGeometry relative="1" as="geometry">
            <Array as="points">
              <mxPoint x="247" y="993" />
            </Array>
          </mxGeometry>
        </mxCell>
        <mxCell id="cbG4pCL91-RinCW15dFg-21" value="PUT /inventory/jewellery/{itemId}" style="verticalAlign=bottom;edgeStyle=elbowEdgeStyle;elbow=vertical;curved=0;rounded=0;endArrow=block;" edge="1" parent="1" source="cbG4pCL91-RinCW15dFg-2" target="cbG4pCL91-RinCW15dFg-3">
          <mxGeometry relative="1" as="geometry">
            <Array as="points">
              <mxPoint x="554" y="1047" />
            </Array>
          </mxGeometry>
        </mxCell>
        <mxCell id="cbG4pCL91-RinCW15dFg-22" value="Item updated" style="verticalAlign=bottom;edgeStyle=elbowEdgeStyle;elbow=vertical;curved=0;rounded=0;dashed=1;dashPattern=2 3;endArrow=block;" edge="1" parent="1" source="cbG4pCL91-RinCW15dFg-3" target="cbG4pCL91-RinCW15dFg-2">
          <mxGeometry relative="1" as="geometry">
            <Array as="points">
              <mxPoint x="557" y="1101" />
            </Array>
          </mxGeometry>
        </mxCell>
        <mxCell id="cbG4pCL91-RinCW15dFg-23" value="Show success message" style="verticalAlign=bottom;edgeStyle=elbowEdgeStyle;elbow=vertical;curved=0;rounded=0;dashed=1;dashPattern=2 3;endArrow=block;" edge="1" parent="1" source="cbG4pCL91-RinCW15dFg-2" target="cbG4pCL91-RinCW15dFg-1">
          <mxGeometry relative="1" as="geometry">
            <Array as="points">
              <mxPoint x="250" y="1155" />
            </Array>
          </mxGeometry>
        </mxCell>
        <mxCell id="cbG4pCL91-RinCW15dFg-24" value="Delete Jewellery Item" style="verticalAlign=bottom;edgeStyle=elbowEdgeStyle;elbow=vertical;curved=0;rounded=0;endArrow=block;" edge="1" parent="1" source="cbG4pCL91-RinCW15dFg-1" target="cbG4pCL91-RinCW15dFg-2">
          <mxGeometry relative="1" as="geometry">
            <Array as="points">
              <mxPoint x="247" y="1209" />
            </Array>
          </mxGeometry>
        </mxCell>
        <mxCell id="cbG4pCL91-RinCW15dFg-25" value="DELETE /inventory/jewellery/{itemId}" style="verticalAlign=bottom;edgeStyle=elbowEdgeStyle;elbow=vertical;curved=0;rounded=0;endArrow=block;" edge="1" parent="1" source="cbG4pCL91-RinCW15dFg-2" target="cbG4pCL91-RinCW15dFg-3">
          <mxGeometry relative="1" as="geometry">
            <Array as="points">
              <mxPoint x="554" y="1263" />
            </Array>
          </mxGeometry>
        </mxCell>
        <mxCell id="cbG4pCL91-RinCW15dFg-26" value="Item deleted" style="verticalAlign=bottom;edgeStyle=elbowEdgeStyle;elbow=vertical;curved=0;rounded=0;dashed=1;dashPattern=2 3;endArrow=block;" edge="1" parent="1" source="cbG4pCL91-RinCW15dFg-3" target="cbG4pCL91-RinCW15dFg-2">
          <mxGeometry relative="1" as="geometry">
            <Array as="points">
              <mxPoint x="557" y="1317" />
            </Array>
          </mxGeometry>
        </mxCell>
        <mxCell id="cbG4pCL91-RinCW15dFg-27" value="Show success message" style="verticalAlign=bottom;edgeStyle=elbowEdgeStyle;elbow=vertical;curved=0;rounded=0;dashed=1;dashPattern=2 3;endArrow=block;" edge="1" parent="1" source="cbG4pCL91-RinCW15dFg-2" target="cbG4pCL91-RinCW15dFg-1">
          <mxGeometry relative="1" as="geometry">
            <Array as="points">
              <mxPoint x="250" y="1371" />
            </Array>
          </mxGeometry>
        </mxCell>
        <mxCell id="cbG4pCL91-RinCW15dFg-28" value="Add Gold Stock" style="verticalAlign=bottom;edgeStyle=elbowEdgeStyle;elbow=vertical;curved=0;rounded=0;endArrow=block;" edge="1" parent="1" source="cbG4pCL91-RinCW15dFg-1" target="cbG4pCL91-RinCW15dFg-2">
          <mxGeometry relative="1" as="geometry">
            <Array as="points">
              <mxPoint x="247" y="1425" />
            </Array>
          </mxGeometry>
        </mxCell>
        <mxCell id="cbG4pCL91-RinCW15dFg-29" value="POST /inventory/gold" style="verticalAlign=bottom;edgeStyle=elbowEdgeStyle;elbow=vertical;curved=0;rounded=0;endArrow=block;" edge="1" parent="1" source="cbG4pCL91-RinCW15dFg-2" target="cbG4pCL91-RinCW15dFg-3">
          <mxGeometry relative="1" as="geometry">
            <Array as="points">
              <mxPoint x="554" y="1479" />
            </Array>
          </mxGeometry>
        </mxCell>
        <mxCell id="cbG4pCL91-RinCW15dFg-30" value="Gold stock added" style="verticalAlign=bottom;edgeStyle=elbowEdgeStyle;elbow=vertical;curved=0;rounded=0;dashed=1;dashPattern=2 3;endArrow=block;" edge="1" parent="1" source="cbG4pCL91-RinCW15dFg-3" target="cbG4pCL91-RinCW15dFg-2">
          <mxGeometry relative="1" as="geometry">
            <Array as="points">
              <mxPoint x="557" y="1533" />
            </Array>
          </mxGeometry>
        </mxCell>
        <mxCell id="cbG4pCL91-RinCW15dFg-31" value="Show success message" style="verticalAlign=bottom;edgeStyle=elbowEdgeStyle;elbow=vertical;curved=0;rounded=0;dashed=1;dashPattern=2 3;endArrow=block;" edge="1" parent="1" source="cbG4pCL91-RinCW15dFg-2" target="cbG4pCL91-RinCW15dFg-1">
          <mxGeometry relative="1" as="geometry">
            <Array as="points">
              <mxPoint x="250" y="1587" />
            </Array>
          </mxGeometry>
        </mxCell>
        <mxCell id="cbG4pCL91-RinCW15dFg-32" value="Update Gold Stock" style="verticalAlign=bottom;edgeStyle=elbowEdgeStyle;elbow=vertical;curved=0;rounded=0;endArrow=block;" edge="1" parent="1" source="cbG4pCL91-RinCW15dFg-1" target="cbG4pCL91-RinCW15dFg-2">
          <mxGeometry relative="1" as="geometry">
            <Array as="points">
              <mxPoint x="247" y="1641" />
            </Array>
          </mxGeometry>
        </mxCell>
        <mxCell id="cbG4pCL91-RinCW15dFg-33" value="PUT /inventory/gold/{stockId}" style="verticalAlign=bottom;edgeStyle=elbowEdgeStyle;elbow=vertical;curved=0;rounded=0;endArrow=block;" edge="1" parent="1" source="cbG4pCL91-RinCW15dFg-2" target="cbG4pCL91-RinCW15dFg-3">
          <mxGeometry relative="1" as="geometry">
            <Array as="points">
              <mxPoint x="554" y="1695" />
            </Array>
          </mxGeometry>
        </mxCell>
        <mxCell id="cbG4pCL91-RinCW15dFg-34" value="Gold stock updated" style="verticalAlign=bottom;edgeStyle=elbowEdgeStyle;elbow=vertical;curved=0;rounded=0;dashed=1;dashPattern=2 3;endArrow=block;" edge="1" parent="1" source="cbG4pCL91-RinCW15dFg-3" target="cbG4pCL91-RinCW15dFg-2">
          <mxGeometry relative="1" as="geometry">
            <Array as="points">
              <mxPoint x="557" y="1749" />
            </Array>
          </mxGeometry>
        </mxCell>
        <mxCell id="cbG4pCL91-RinCW15dFg-35" value="Show success message" style="verticalAlign=bottom;edgeStyle=elbowEdgeStyle;elbow=vertical;curved=0;rounded=0;dashed=1;dashPattern=2 3;endArrow=block;" edge="1" parent="1" source="cbG4pCL91-RinCW15dFg-2" target="cbG4pCL91-RinCW15dFg-1">
          <mxGeometry relative="1" as="geometry">
            <Array as="points">
              <mxPoint x="250" y="1803" />
            </Array>
          </mxGeometry>
        </mxCell>
        <mxCell id="cbG4pCL91-RinCW15dFg-36" value="Search Inventory" style="verticalAlign=bottom;edgeStyle=elbowEdgeStyle;elbow=vertical;curved=0;rounded=0;endArrow=block;" edge="1" parent="1" source="cbG4pCL91-RinCW15dFg-1" target="cbG4pCL91-RinCW15dFg-2">
          <mxGeometry relative="1" as="geometry">
            <Array as="points">
              <mxPoint x="247" y="1857" />
            </Array>
          </mxGeometry>
        </mxCell>
        <mxCell id="cbG4pCL91-RinCW15dFg-37" value="GET /inventory/search" style="verticalAlign=bottom;edgeStyle=elbowEdgeStyle;elbow=vertical;curved=0;rounded=0;endArrow=block;" edge="1" parent="1" source="cbG4pCL91-RinCW15dFg-2" target="cbG4pCL91-RinCW15dFg-3">
          <mxGeometry relative="1" as="geometry">
            <Array as="points">
              <mxPoint x="554" y="1911" />
            </Array>
          </mxGeometry>
        </mxCell>
        <mxCell id="cbG4pCL91-RinCW15dFg-38" value="Search results" style="verticalAlign=bottom;edgeStyle=elbowEdgeStyle;elbow=vertical;curved=0;rounded=0;dashed=1;dashPattern=2 3;endArrow=block;" edge="1" parent="1" source="cbG4pCL91-RinCW15dFg-3" target="cbG4pCL91-RinCW15dFg-2">
          <mxGeometry relative="1" as="geometry">
            <Array as="points">
              <mxPoint x="557" y="1965" />
            </Array>
          </mxGeometry>
        </mxCell>
        <mxCell id="cbG4pCL91-RinCW15dFg-39" value="Display filtered items" style="verticalAlign=bottom;edgeStyle=elbowEdgeStyle;elbow=vertical;curved=0;rounded=0;dashed=1;dashPattern=2 3;endArrow=block;" edge="1" parent="1" source="cbG4pCL91-RinCW15dFg-2" target="cbG4pCL91-RinCW15dFg-1">
          <mxGeometry relative="1" as="geometry">
            <Array as="points">
              <mxPoint x="250" y="2019" />
            </Array>
          </mxGeometry>
        </mxCell>
        <mxCell id="cbG4pCL91-RinCW15dFg-40" value="View Item Details" style="verticalAlign=bottom;edgeStyle=elbowEdgeStyle;elbow=vertical;curved=0;rounded=0;endArrow=block;" edge="1" parent="1" source="cbG4pCL91-RinCW15dFg-1" target="cbG4pCL91-RinCW15dFg-2">
          <mxGeometry relative="1" as="geometry">
            <Array as="points">
              <mxPoint x="247" y="2073" />
            </Array>
          </mxGeometry>
        </mxCell>
        <mxCell id="cbG4pCL91-RinCW15dFg-41" value="GET /inventory/item/{itemId}" style="verticalAlign=bottom;edgeStyle=elbowEdgeStyle;elbow=vertical;curved=0;rounded=0;endArrow=block;" edge="1" parent="1" source="cbG4pCL91-RinCW15dFg-2" target="cbG4pCL91-RinCW15dFg-3">
          <mxGeometry relative="1" as="geometry">
            <Array as="points">
              <mxPoint x="554" y="2127" />
            </Array>
          </mxGeometry>
        </mxCell>
        <mxCell id="cbG4pCL91-RinCW15dFg-42" value="Item details" style="verticalAlign=bottom;edgeStyle=elbowEdgeStyle;elbow=vertical;curved=0;rounded=0;dashed=1;dashPattern=2 3;endArrow=block;" edge="1" parent="1" source="cbG4pCL91-RinCW15dFg-3" target="cbG4pCL91-RinCW15dFg-2">
          <mxGeometry relative="1" as="geometry">
            <Array as="points">
              <mxPoint x="557" y="2181" />
            </Array>
          </mxGeometry>
        </mxCell>
        <mxCell id="cbG4pCL91-RinCW15dFg-43" value="Display item modal" style="verticalAlign=bottom;edgeStyle=elbowEdgeStyle;elbow=vertical;curved=0;rounded=0;dashed=1;dashPattern=2 3;endArrow=block;" edge="1" parent="1" source="cbG4pCL91-RinCW15dFg-2" target="cbG4pCL91-RinCW15dFg-1">
          <mxGeometry relative="1" as="geometry">
            <Array as="points">
              <mxPoint x="250" y="2235" />
            </Array>
          </mxGeometry>
        </mxCell>
        <mxCell id="cbG4pCL91-RinCW15dFg-44" value="Generate Inventory Report" style="verticalAlign=bottom;edgeStyle=elbowEdgeStyle;elbow=vertical;curved=0;rounded=0;endArrow=block;" edge="1" parent="1" source="cbG4pCL91-RinCW15dFg-1" target="cbG4pCL91-RinCW15dFg-2">
          <mxGeometry relative="1" as="geometry">
            <Array as="points">
              <mxPoint x="247" y="2289" />
            </Array>
          </mxGeometry>
        </mxCell>
        <mxCell id="cbG4pCL91-RinCW15dFg-45" value="GET /inventory/report" style="verticalAlign=bottom;edgeStyle=elbowEdgeStyle;elbow=vertical;curved=0;rounded=0;endArrow=block;" edge="1" parent="1" source="cbG4pCL91-RinCW15dFg-2" target="cbG4pCL91-RinCW15dFg-3">
          <mxGeometry relative="1" as="geometry">
            <Array as="points">
              <mxPoint x="554" y="2343" />
            </Array>
          </mxGeometry>
        </mxCell>
        <mxCell id="cbG4pCL91-RinCW15dFg-46" value="Report data" style="verticalAlign=bottom;edgeStyle=elbowEdgeStyle;elbow=vertical;curved=0;rounded=0;dashed=1;dashPattern=2 3;endArrow=block;" edge="1" parent="1" source="cbG4pCL91-RinCW15dFg-3" target="cbG4pCL91-RinCW15dFg-2">
          <mxGeometry relative="1" as="geometry">
            <Array as="points">
              <mxPoint x="557" y="2397" />
            </Array>
          </mxGeometry>
        </mxCell>
        <mxCell id="cbG4pCL91-RinCW15dFg-47" value="Display/Download report" style="verticalAlign=bottom;edgeStyle=elbowEdgeStyle;elbow=vertical;curved=0;rounded=0;dashed=1;dashPattern=2 3;endArrow=block;" edge="1" parent="1" source="cbG4pCL91-RinCW15dFg-2" target="cbG4pCL91-RinCW15dFg-1">
          <mxGeometry relative="1" as="geometry">
            <Array as="points">
              <mxPoint x="250" y="2451" />
            </Array>
          </mxGeometry>
        </mxCell>
        <mxCell id="cbG4pCL91-RinCW15dFg-48" value="Refresh Inventory" style="verticalAlign=bottom;edgeStyle=elbowEdgeStyle;elbow=vertical;curved=0;rounded=0;endArrow=block;" edge="1" parent="1" source="cbG4pCL91-RinCW15dFg-1" target="cbG4pCL91-RinCW15dFg-2">
          <mxGeometry relative="1" as="geometry">
            <Array as="points">
              <mxPoint x="247" y="2505" />
            </Array>
          </mxGeometry>
        </mxCell>
        <mxCell id="cbG4pCL91-RinCW15dFg-49" value="GET /inventory/refresh" style="verticalAlign=bottom;edgeStyle=elbowEdgeStyle;elbow=vertical;curved=0;rounded=0;endArrow=block;" edge="1" parent="1" source="cbG4pCL91-RinCW15dFg-2" target="cbG4pCL91-RinCW15dFg-3">
          <mxGeometry relative="1" as="geometry">
            <Array as="points">
              <mxPoint x="554" y="2559" />
            </Array>
          </mxGeometry>
        </mxCell>
        <mxCell id="cbG4pCL91-RinCW15dFg-50" value="Updated inventory data" style="verticalAlign=bottom;edgeStyle=elbowEdgeStyle;elbow=vertical;curved=0;rounded=0;dashed=1;dashPattern=2 3;endArrow=block;" edge="1" parent="1" source="cbG4pCL91-RinCW15dFg-3" target="cbG4pCL91-RinCW15dFg-2">
          <mxGeometry relative="1" as="geometry">
            <Array as="points">
              <mxPoint x="557" y="2613" />
            </Array>
          </mxGeometry>
        </mxCell>
        <mxCell id="cbG4pCL91-RinCW15dFg-51" value="Display refreshed inventory" style="verticalAlign=bottom;edgeStyle=elbowEdgeStyle;elbow=vertical;curved=0;rounded=0;dashed=1;dashPattern=2 3;endArrow=block;" edge="1" parent="1" source="cbG4pCL91-RinCW15dFg-2" target="cbG4pCL91-RinCW15dFg-1">
          <mxGeometry relative="1" as="geometry">
            <Array as="points">
              <mxPoint x="250" y="2667" />
            </Array>
          </mxGeometry>
        </mxCell>
      </root>
    </mxGraphModel>
  </diagram>
</mxfile>
